<?xml version="1.0" encoding="UTF-8"?>
<svg id="Layer_2" data-name="Layer 2" xmlns="http://www.w3.org/2000/svg" viewBox="0 0 256 256">
  <defs>
    <style>
      .cls-1 {
        fill: #67dcee;
      }

      .cls-1, .cls-2 {
        stroke-width: 0px;
      }

      .cls-2 {
        fill: #3466fa;
      }
    </style>
  </defs>
  <path class="cls-2" d="m163.28,55.77c-.19-.2-.35-.48-.58-.58-21.42-9-60.49,1.39-74.27,19.73-17.67,23.52-12.94,55.58,10.87,74.41,8.92,7.06,19.17,11.32,29.87,15.75-7.52,0-15.04-.04-22.56,0-26.03.16-52.07.19-78.1.63-6.38.11-8.68-1.89-8.66-8.42.21-48.79.18-97.58.08-146.37-.01-4.97,1.2-7.78,6.76-7.77,44.12.12,88.23.14,132.35.22,1.07,0,2.13.46,3.2.7.93,17.21-.9,34.48,1.05,51.68Z"/>
  <path class="cls-1" d="m146.87,114.82c14.33-1.04,28.54-1.67,42.58.89,23.34,4.27,42.08,25.21,43.43,50.34.82,15.24,1.73,30.62-1.06,45.89-4.26,23.29-24.01,40.38-47.77,40.61-24.66.23-49.33.42-73.99.15-21.66-.24-39.58-13.61-46.19-33.28-1.95-5.82-1.27-8.49,5.8-8.37,20.01.33,40.02.13,60.03.11,25.39-.03,45.58-15.45,50.5-38.55,5.05-23.66-7.16-46.29-30.51-56.54-.95-.41-1.89-.83-2.84-1.24Z"/>
  <path class="cls-1" d="m236.15,75.23h-48c-14.31,0-25.92-11.6-25.92-25.92V4.09"/>
</svg>